Coordinates
version=1
nRows=60
nColumns=12
inDegrees=yes

Units are S.I. units (second, meters, Newtons, ...)
Angles are in degrees

endheader
time	SC_y	SC_z	SC_x	AC_y	AC_z	AC_x	GH_y	GH_z	GH_yy	EL_x	PS_y
       0.0              -35.54          22.54          31.14          31.34           6.42         -13.82           80.6          12.08          -27.2          41.72          103.2
   0.02887              -35.53          22.54          31.14          31.34          6.416         -13.82           80.6          12.08         -27.19          41.73          103.2
   0.05774              -35.53          22.54          31.14          31.35          6.413         -13.81           80.6          12.08         -27.18          41.73          103.2
   0.08661              -35.53          22.54          31.14          31.35          6.409         -13.81          80.59          12.08         -27.17          41.74          103.1
    0.1155              -35.53          22.54          31.13          31.36          6.405         -13.81          80.59          12.08         -27.15          41.75          103.1
    0.1443              -35.52          22.54          31.13          31.36            6.4          -13.8          80.59          12.08         -27.14          41.75          103.1
    0.1732              -35.52          22.54          31.13          31.37          6.396          -13.8          80.58          12.08         -27.13          41.76          103.1
    0.2021              -35.52          22.54          31.13          31.37          6.391          -13.8          80.58          12.08         -27.11          41.77          103.1
     0.231              -35.52          22.53          31.13          31.38          6.385         -13.79          80.57          12.08          -27.1          41.78          103.1
    0.2598              -35.51          22.53          31.13          31.39           6.38         -13.79          80.57          12.08         -27.08          41.79          103.1
    0.2887              -35.51          22.53          31.13           31.4          6.374         -13.78          80.56          12.08         -27.06           41.8          103.1
    0.3176              -35.51          22.53          31.12          31.41          6.367         -13.78          80.56          12.08         -27.04          41.81          103.1
    0.3464               -35.5          22.53          31.12          31.41           6.36         -13.77          80.55          12.08         -27.02          41.82          103.1
    0.3753               -35.5          22.53          31.12          31.42          6.352         -13.76          80.55          12.08          -27.0          41.83          103.1
    0.4042              -35.49          22.53          31.12          31.43          6.344         -13.76          80.54          12.08         -26.97          41.84          103.1
     0.433              -35.49          22.52          31.12          31.45          6.335         -13.75          80.53          12.08         -26.94          41.86          103.1
    0.4619              -35.48          22.52          31.11          31.46          6.325         -13.74          80.52          12.08         -26.91          41.87          103.1
    0.4908              -35.48          22.52          31.11          31.47          6.314         -13.73          80.51          12.08         -26.88          41.89          103.1
    0.5196              -35.47          22.52          31.11          31.49          6.303         -13.72           80.5          12.08         -26.85          41.91          103.1
    0.5485              -35.46          22.51           31.1           31.5           6.29         -13.71          80.49          12.08         -26.81          41.93          103.1
    0.5774              -35.46          22.51           31.1          31.52          6.276          -13.7          80.48          12.08         -26.77          41.95          103.1
    0.6063              -35.45          22.51           31.1          31.54           6.26         -13.68          80.47          12.08         -26.72          41.98          103.1
    0.6351              -35.44           22.5          31.09          31.56          6.243         -13.67          80.45          12.08         -26.67           42.0          103.1
     0.664              -35.43           22.5          31.09          31.59          6.224         -13.65          80.44          12.08         -26.61          42.03          103.1
    0.6929              -35.41           22.5          31.08          31.62          6.203         -13.64          80.42          12.08         -26.55          42.07          103.0
    0.7217               -35.4          22.49          31.08          31.65           6.18         -13.62           80.4          12.08         -26.48          42.11          103.0
    0.7506              -35.39          22.48          31.07          31.68          6.154         -13.59          80.38          12.08          -26.4          42.15          103.0
    0.7795              -35.37          22.48          31.06          31.72          6.124         -13.57          80.35          12.08         -26.31           42.2          103.0
    0.8083              -35.35          22.47          31.05          31.76          6.091         -13.54          80.32          12.08         -26.21          42.25          103.0
    0.8372              -35.33          22.46          31.04          31.81          6.053         -13.51          80.29          12.08          -26.1          42.31          103.0
    0.8661              -35.31          22.45          31.03          31.86          6.009         -13.47          80.25          12.08         -25.97          42.38          102.9
    0.8949              -35.28          22.44          31.02          31.93           5.96         -13.43          80.21          12.08         -25.82          42.46          102.9
    0.9238              -35.25          22.43           31.0           32.0          5.902         -13.38          80.16          12.08         -25.65          42.55          102.9
    0.9527              -35.21          22.42          30.99          32.09          5.836         -13.32          80.11          12.08         -25.45          42.66          102.9
    0.9816              -35.17           22.4          30.96          32.19          5.758         -13.26          80.04          12.08         -25.22          42.78          102.8
      1.01              -35.12          22.38          30.94          32.31          5.666         -13.18          79.96          12.08         -24.94          42.93          102.8
     1.039              -35.06          22.36          30.91          32.45          5.556         -13.08          79.87          12.08         -24.61           43.1          102.7
     1.068              -34.98          22.33          30.88          32.61          5.425         -12.97          79.76          12.08         -24.22          43.31          102.6
     1.097              -34.89           22.3          30.84          32.82          5.267         -12.84          79.62          12.08         -23.75          43.57          102.6
     1.126              -34.79          22.26          30.78          33.07          5.073         -12.67          79.46          12.08         -23.17          43.87          102.5
     1.155              -34.65          22.21          30.72          33.37          4.835         -12.47          79.26          12.07         -22.45          44.26          102.3
     1.184              -34.49          22.14          30.64          33.76          4.537         -12.21           79.0          12.07         -21.56          44.73          102.2
     1.213              -34.28          22.06          30.54          34.24          4.161         -11.89          78.69          12.07         -20.44          45.33          102.0
     1.241              -34.01          21.96          30.42          34.85          3.684         -11.49          78.28          12.07         -19.01           46.1          101.7
      1.27              -33.67          21.83          30.26          35.63          3.074         -10.97          77.76          12.06         -17.18          47.07          101.4
     1.299              -33.24          21.67          30.05          36.64           2.29          -10.3           77.1          12.06         -14.83          48.32          101.0
     1.328              -32.68          21.45          29.79          37.92          1.289         -9.444          76.25          12.05         -11.84          49.92          100.5
     1.357              -31.98          21.19          29.46          39.54        0.03057         -8.371          75.18          12.04         -8.067          51.94          99.83
     1.386              -31.13          20.86          29.05          41.51         -1.503         -7.063          73.87          12.03         -3.475          54.39          99.03
     1.415              -30.14          20.49          28.59          43.79         -3.281         -5.547          72.37          12.02          1.848          57.23          98.11
     1.443              -29.07          20.08          28.08          46.26         -5.206         -3.905          70.73          12.01          7.612          60.31          97.11
     1.472               -28.0          19.67          27.57          48.74         -7.131         -2.264           69.1          11.99          13.38          63.38          96.11
     1.501              -27.01          19.29           27.1          51.02         -8.909        -0.7475          67.59          11.98           18.7          66.23          95.18
      1.53              -26.15          18.97           26.7          52.99         -10.44         0.5605          66.28          11.97          23.29          68.68          94.38
     1.559              -25.45           18.7          26.37           54.6          -11.7          1.634          65.22          11.96          27.06          70.69          93.73
     1.588               -24.9          18.49          26.11          55.89          -12.7          2.487          64.37          11.95          30.06          72.29          93.21
     1.617              -24.46          18.32           25.9          56.89         -13.49          3.156           63.7          11.95           32.4          73.54           92.8
     1.646              -24.12          18.19          25.74          57.68          -14.1          3.676          63.18          11.94          34.23          74.52          92.48
     1.674              -23.86          18.09          25.61          58.29         -14.57          4.083          62.78          11.94          35.66          75.28          92.23
     1.703              -23.65          18.01          25.51          58.77         -14.95          4.403          62.46          11.94          36.78          75.88          92.04
